<svg width="441" height="36" viewBox="0 0 441 36" fill="none" xmlns="http://www.w3.org/2000/svg">
<g clip-path="url(#clip0_148_92)">
<path d="M12.4372 14.0445C13.7772 14.117 14.1227 15.4341 14.1436 16.0503H16.0176C15.9338 13.6578 14.4577 12.1957 12.4058 12.1957C10.0921 12.1957 8.37518 13.8753 8.37518 17.6695C8.37518 20.0137 9.3488 22.7928 12.3953 22.7928C14.7194 22.7928 15.9652 20.7991 15.9967 19.2282H14.1227C14.0913 19.9412 13.6516 20.8957 12.4162 20.9682C11.0448 20.9199 10.469 19.6874 10.469 17.6695C10.469 14.1774 11.809 14.0687 12.4372 14.0445ZM12.5628 5.41699C6.78389 5.41699 2.09375 10.8303 2.09375 17.5003C2.09375 24.1703 6.78389 29.5837 12.5628 29.5837C18.3417 29.5837 23.0319 24.1703 23.0319 17.5003C23.0319 10.8303 18.3417 5.41699 12.5628 5.41699ZM12.5628 27.167C7.94595 27.167 4.18756 22.8291 4.18756 17.5003C4.18756 12.1716 7.94595 7.83366 12.5628 7.83366C17.1797 7.83366 20.938 12.1716 20.938 17.5003C20.938 22.8291 17.1797 27.167 12.5628 27.167Z" fill="#040404"/>
</g>
<path d="M32.4149 24.248C34.4469 22.616 36.0389 21.28 37.1909 20.24C38.3429 19.184 39.3109 18.088 40.0949 16.952C40.8949 15.8 41.2949 14.672 41.2949 13.568C41.2949 12.528 41.0389 11.712 40.5269 11.12C40.0309 10.512 39.2229 10.208 38.1029 10.208C37.0149 10.208 36.1669 10.552 35.5589 11.24C34.9669 11.912 34.6469 12.816 34.5989 13.952H32.4869C32.5509 12.16 33.0949 10.776 34.1189 9.8C35.1429 8.824 36.4629 8.336 38.0789 8.336C39.7269 8.336 41.0309 8.792 41.9909 9.704C42.9669 10.616 43.4549 11.872 43.4549 13.472C43.4549 14.8 43.0549 16.096 42.2549 17.36C41.4709 18.608 40.5749 19.712 39.5669 20.672C38.5589 21.616 37.2709 22.72 35.7029 23.984H43.9589V25.808H32.4149V24.248ZM46.4836 17.144C46.4836 14.392 46.9316 12.248 47.8276 10.712C48.7236 9.16 50.2916 8.384 52.5316 8.384C54.7556 8.384 56.3156 9.16 57.2116 10.712C58.1076 12.248 58.5556 14.392 58.5556 17.144C58.5556 19.944 58.1076 22.12 57.2116 23.672C56.3156 25.224 54.7556 26 52.5316 26C50.2916 26 48.7236 25.224 47.8276 23.672C46.9316 22.12 46.4836 19.944 46.4836 17.144ZM56.3956 17.144C56.3956 15.752 56.2996 14.576 56.1076 13.616C55.9316 12.64 55.5556 11.856 54.9796 11.264C54.4196 10.672 53.6036 10.376 52.5316 10.376C51.4436 10.376 50.6116 10.672 50.0356 11.264C49.4756 11.856 49.0996 12.64 48.9076 13.616C48.7316 14.576 48.6436 15.752 48.6436 17.144C48.6436 18.584 48.7316 19.792 48.9076 20.768C49.0996 21.744 49.4756 22.528 50.0356 23.12C50.6116 23.712 51.4436 24.008 52.5316 24.008C53.6036 24.008 54.4196 23.712 54.9796 23.12C55.5556 22.528 55.9316 21.744 56.1076 20.768C56.2996 19.792 56.3956 18.584 56.3956 17.144ZM61.2899 24.248C63.3219 22.616 64.9139 21.28 66.0659 20.24C67.2179 19.184 68.1859 18.088 68.9699 16.952C69.7699 15.8 70.1699 14.672 70.1699 13.568C70.1699 12.528 69.9139 11.712 69.4019 11.12C68.9059 10.512 68.0979 10.208 66.9779 10.208C65.8899 10.208 65.0419 10.552 64.4339 11.24C63.8419 11.912 63.5219 12.816 63.4739 13.952H61.3619C61.4259 12.16 61.9699 10.776 62.9939 9.8C64.0179 8.824 65.3379 8.336 66.9539 8.336C68.6019 8.336 69.9059 8.792 70.8659 9.704C71.8419 10.616 72.3299 11.872 72.3299 13.472C72.3299 14.8 71.9299 16.096 71.1299 17.36C70.3459 18.608 69.4499 19.712 68.4419 20.672C67.4339 21.616 66.1459 22.72 64.5779 23.984H72.8339V25.808H61.2899V24.248ZM74.7826 10.64V8.648H79.2946V26H77.0866V10.64H74.7826ZM93.5485 9.152V26H89.4445V9.152H93.5485ZM111.595 26H107.491L100.627 15.608V26H96.5227V9.152H100.627L107.491 19.592V9.152H111.595V26ZM125.754 14.48C125.45 13.92 125.01 13.496 124.434 13.208C123.874 12.904 123.21 12.752 122.442 12.752C121.114 12.752 120.05 13.192 119.25 14.072C118.45 14.936 118.05 16.096 118.05 17.552C118.05 19.104 118.466 20.32 119.298 21.2C120.146 22.064 121.306 22.496 122.778 22.496C123.786 22.496 124.634 22.24 125.322 21.728C126.026 21.216 126.538 20.48 126.858 19.52H121.65V16.496H130.578V20.312C130.274 21.336 129.754 22.288 129.018 23.168C128.298 24.048 127.378 24.76 126.258 25.304C125.138 25.848 123.874 26.12 122.466 26.12C120.802 26.12 119.314 25.76 118.002 25.04C116.706 24.304 115.69 23.288 114.954 21.992C114.234 20.696 113.874 19.216 113.874 17.552C113.874 15.888 114.234 14.408 114.954 13.112C115.69 11.8 116.706 10.784 118.002 10.064C119.298 9.328 120.778 8.96 122.442 8.96C124.458 8.96 126.154 9.448 127.53 10.424C128.922 11.4 129.842 12.752 130.29 14.48H125.754ZM143.819 9.152V12.44H136.955V15.992H142.091V19.184H136.955V26H132.851V9.152H143.819ZM153.944 26.168C152.36 26.168 150.904 25.8 149.576 25.064C148.264 24.328 147.216 23.304 146.432 21.992C145.664 20.664 145.28 19.176 145.28 17.528C145.28 15.88 145.664 14.4 146.432 13.088C147.216 11.776 148.264 10.752 149.576 10.016C150.904 9.28 152.36 8.912 153.944 8.912C155.528 8.912 156.976 9.28 158.288 10.016C159.616 10.752 160.656 11.776 161.408 13.088C162.176 14.4 162.56 15.88 162.56 17.528C162.56 19.176 162.176 20.664 161.408 21.992C160.64 23.304 159.6 24.328 158.288 25.064C156.976 25.8 155.528 26.168 153.944 26.168ZM153.944 22.424C155.288 22.424 156.36 21.976 157.16 21.08C157.976 20.184 158.384 19 158.384 17.528C158.384 16.04 157.976 14.856 157.16 13.976C156.36 13.08 155.288 12.632 153.944 12.632C152.584 12.632 151.496 13.072 150.68 13.952C149.88 14.832 149.48 16.024 149.48 17.528C149.48 19.016 149.88 20.208 150.68 21.104C151.496 21.984 152.584 22.424 153.944 22.424ZM166.763 26.192C166.043 26.192 165.451 25.984 164.987 25.568C164.539 25.136 164.315 24.608 164.315 23.984C164.315 23.344 164.539 22.808 164.987 22.376C165.451 21.944 166.043 21.728 166.763 21.728C167.467 21.728 168.043 21.944 168.491 22.376C168.955 22.808 169.187 23.344 169.187 23.984C169.187 24.608 168.955 25.136 168.491 25.568C168.043 25.984 167.467 26.192 166.763 26.192ZM175.72 9.152V26H171.616V9.152H175.72ZM185.007 9.152C186.783 9.152 188.335 9.504 189.663 10.208C190.991 10.912 192.015 11.904 192.735 13.184C193.471 14.448 193.839 15.912 193.839 17.576C193.839 19.224 193.471 20.688 192.735 21.968C192.015 23.248 190.983 24.24 189.639 24.944C188.311 25.648 186.767 26 185.007 26H178.695V9.152H185.007ZM184.743 22.448C186.295 22.448 187.503 22.024 188.367 21.176C189.231 20.328 189.663 19.128 189.663 17.576C189.663 16.024 189.231 14.816 188.367 13.952C187.503 13.088 186.295 12.656 184.743 12.656H182.799V22.448H184.743ZM197.188 26.144C196.772 26.144 196.42 26 196.132 25.712C195.844 25.424 195.7 25.072 195.7 24.656C195.7 24.24 195.844 23.888 196.132 23.6C196.42 23.312 196.772 23.168 197.188 23.168C197.588 23.168 197.924 23.312 198.196 23.6C198.484 23.888 198.628 24.24 198.628 24.656C198.628 25.072 198.484 25.424 198.196 25.712C197.924 26 197.588 26.144 197.188 26.144ZM217.818 22.28H210.522L209.178 26H206.874L212.922 9.368H215.442L221.466 26H219.162L217.818 22.28ZM217.194 20.504L214.17 12.056L211.146 20.504H217.194ZM226.285 8.24V26H224.101V8.24H226.285ZM232.192 8.24V26H230.008V8.24H232.192ZM251.12 26L247.136 19.16H244.496V26H242.312V9.272H247.712C248.976 9.272 250.04 9.488 250.904 9.92C251.784 10.352 252.44 10.936 252.872 11.672C253.304 12.408 253.52 13.248 253.52 14.192C253.52 15.344 253.184 16.36 252.512 17.24C251.856 18.12 250.864 18.704 249.536 18.992L253.736 26H251.12ZM244.496 17.408H247.712C248.896 17.408 249.784 17.12 250.376 16.544C250.968 15.952 251.264 15.168 251.264 14.192C251.264 13.2 250.968 12.432 250.376 11.888C249.8 11.344 248.912 11.072 247.712 11.072H244.496V17.408ZM258.042 10.712C257.626 10.712 257.274 10.568 256.986 10.28C256.698 9.992 256.554 9.64 256.554 9.224C256.554 8.808 256.698 8.456 256.986 8.168C257.274 7.88 257.626 7.736 258.042 7.736C258.442 7.736 258.778 7.88 259.05 8.168C259.338 8.456 259.482 8.808 259.482 9.224C259.482 9.64 259.338 9.992 259.05 10.28C258.778 10.568 258.442 10.712 258.042 10.712ZM259.098 12.848V26H256.914V12.848H259.098ZM268.244 12.632C269.38 12.632 270.372 12.88 271.22 13.376C272.084 13.872 272.724 14.496 273.14 15.248V12.848H275.348V26.288C275.348 27.488 275.092 28.552 274.58 29.48C274.068 30.424 273.332 31.16 272.372 31.688C271.428 32.216 270.324 32.48 269.06 32.48C267.332 32.48 265.892 32.072 264.74 31.256C263.588 30.44 262.908 29.328 262.7 27.92H264.86C265.1 28.72 265.596 29.36 266.348 29.84C267.1 30.336 268.004 30.584 269.06 30.584C270.26 30.584 271.236 30.208 271.988 29.456C272.756 28.704 273.14 27.648 273.14 26.288V23.528C272.708 24.296 272.068 24.936 271.22 25.448C270.372 25.96 269.38 26.216 268.244 26.216C267.076 26.216 266.012 25.928 265.052 25.352C264.108 24.776 263.364 23.968 262.82 22.928C262.276 21.888 262.004 20.704 262.004 19.376C262.004 18.032 262.276 16.856 262.82 15.848C263.364 14.824 264.108 14.032 265.052 13.472C266.012 12.912 267.076 12.632 268.244 12.632ZM273.14 19.4C273.14 18.408 272.94 17.544 272.54 16.808C272.14 16.072 271.596 15.512 270.908 15.128C270.236 14.728 269.492 14.528 268.676 14.528C267.86 14.528 267.116 14.72 266.444 15.104C265.772 15.488 265.236 16.048 264.836 16.784C264.436 17.52 264.236 18.384 264.236 19.376C264.236 20.384 264.436 21.264 264.836 22.016C265.236 22.752 265.772 23.32 266.444 23.72C267.116 24.104 267.86 24.296 268.676 24.296C269.492 24.296 270.236 24.104 270.908 23.72C271.596 23.32 272.14 22.752 272.54 22.016C272.94 21.264 273.14 20.392 273.14 19.4ZM285.567 12.608C286.559 12.608 287.455 12.824 288.255 13.256C289.055 13.672 289.679 14.304 290.127 15.152C290.591 16 290.823 17.032 290.823 18.248V26H288.663V18.56C288.663 17.248 288.335 16.248 287.679 15.56C287.023 14.856 286.127 14.504 284.991 14.504C283.839 14.504 282.919 14.864 282.231 15.584C281.559 16.304 281.223 17.352 281.223 18.728V26H279.039V8.24H281.223V14.72C281.655 14.048 282.247 13.528 282.999 13.16C283.767 12.792 284.623 12.608 285.567 12.608ZM297.054 14.648V22.4C297.054 23.04 297.19 23.496 297.462 23.768C297.734 24.024 298.206 24.152 298.878 24.152H300.486V26H298.518C297.302 26 296.39 25.72 295.782 25.16C295.174 24.6 294.87 23.68 294.87 22.4V14.648H293.166V12.848H294.87V9.536H297.054V12.848H300.486V14.648H297.054ZM307.789 26.216C306.781 26.216 305.877 26.048 305.077 25.712C304.277 25.36 303.645 24.88 303.181 24.272C302.717 23.648 302.461 22.936 302.413 22.136H304.669C304.733 22.792 305.037 23.328 305.581 23.744C306.141 24.16 306.869 24.368 307.765 24.368C308.597 24.368 309.253 24.184 309.733 23.816C310.213 23.448 310.453 22.984 310.453 22.424C310.453 21.848 310.197 21.424 309.685 21.152C309.173 20.864 308.381 20.584 307.309 20.312C306.333 20.056 305.533 19.8 304.909 19.544C304.301 19.272 303.773 18.88 303.325 18.368C302.893 17.84 302.677 17.152 302.677 16.304C302.677 15.632 302.877 15.016 303.277 14.456C303.677 13.896 304.245 13.456 304.981 13.136C305.717 12.8 306.557 12.632 307.501 12.632C308.957 12.632 310.133 13 311.029 13.736C311.925 14.472 312.405 15.48 312.469 16.76H310.285C310.237 16.072 309.957 15.52 309.445 15.104C308.949 14.688 308.277 14.48 307.429 14.48C306.645 14.48 306.021 14.648 305.557 14.984C305.093 15.32 304.861 15.76 304.861 16.304C304.861 16.736 304.997 17.096 305.269 17.384C305.557 17.656 305.909 17.88 306.325 18.056C306.757 18.216 307.349 18.4 308.101 18.608C309.045 18.864 309.813 19.12 310.405 19.376C310.997 19.616 311.501 19.984 311.917 20.48C312.349 20.976 312.573 21.624 312.589 22.424C312.589 23.144 312.389 23.792 311.989 24.368C311.589 24.944 311.021 25.4 310.285 25.736C309.565 26.056 308.733 26.216 307.789 26.216ZM330.878 26L326.894 19.16H324.254V26H322.07V9.272H327.47C328.734 9.272 329.798 9.488 330.662 9.92C331.542 10.352 332.198 10.936 332.63 11.672C333.062 12.408 333.278 13.248 333.278 14.192C333.278 15.344 332.942 16.36 332.27 17.24C331.614 18.12 330.622 18.704 329.294 18.992L333.494 26H330.878ZM324.254 17.408H327.47C328.654 17.408 329.542 17.12 330.134 16.544C330.726 15.952 331.022 15.168 331.022 14.192C331.022 13.2 330.726 12.432 330.134 11.888C329.558 11.344 328.67 11.072 327.47 11.072H324.254V17.408ZM348.672 18.92C348.672 19.336 348.648 19.776 348.6 20.24H338.088C338.168 21.536 338.608 22.552 339.408 23.288C340.224 24.008 341.208 24.368 342.36 24.368C343.304 24.368 344.088 24.152 344.712 23.72C345.352 23.272 345.8 22.68 346.056 21.944H348.408C348.056 23.208 347.352 24.24 346.296 25.04C345.24 25.824 343.928 26.216 342.36 26.216C341.112 26.216 339.992 25.936 339 25.376C338.024 24.816 337.256 24.024 336.696 23C336.136 21.96 335.856 20.76 335.856 19.4C335.856 18.04 336.128 16.848 336.672 15.824C337.216 14.8 337.976 14.016 338.952 13.472C339.944 12.912 341.08 12.632 342.36 12.632C343.608 12.632 344.712 12.904 345.672 13.448C346.632 13.992 347.368 14.744 347.88 15.704C348.408 16.648 348.672 17.72 348.672 18.92ZM346.416 18.464C346.416 17.632 346.232 16.92 345.864 16.328C345.496 15.72 344.992 15.264 344.352 14.96C343.728 14.64 343.032 14.48 342.264 14.48C341.16 14.48 340.216 14.832 339.432 15.536C338.664 16.24 338.224 17.216 338.112 18.464H346.416ZM356.211 26.216C355.203 26.216 354.299 26.048 353.499 25.712C352.699 25.36 352.067 24.88 351.603 24.272C351.139 23.648 350.883 22.936 350.835 22.136H353.091C353.155 22.792 353.459 23.328 354.003 23.744C354.563 24.16 355.291 24.368 356.187 24.368C357.019 24.368 357.675 24.184 358.155 23.816C358.635 23.448 358.875 22.984 358.875 22.424C358.875 21.848 358.619 21.424 358.107 21.152C357.595 20.864 356.803 20.584 355.731 20.312C354.755 20.056 353.955 19.8 353.331 19.544C352.723 19.272 352.195 18.88 351.747 18.368C351.315 17.84 351.099 17.152 351.099 16.304C351.099 15.632 351.299 15.016 351.699 14.456C352.099 13.896 352.667 13.456 353.403 13.136C354.139 12.8 354.979 12.632 355.923 12.632C357.379 12.632 358.555 13 359.451 13.736C360.347 14.472 360.827 15.48 360.891 16.76H358.707C358.659 16.072 358.379 15.52 357.867 15.104C357.371 14.688 356.699 14.48 355.851 14.48C355.067 14.48 354.443 14.648 353.979 14.984C353.515 15.32 353.283 15.76 353.283 16.304C353.283 16.736 353.419 17.096 353.691 17.384C353.979 17.656 354.331 17.88 354.747 18.056C355.179 18.216 355.771 18.4 356.523 18.608C357.467 18.864 358.235 19.12 358.827 19.376C359.419 19.616 359.923 19.984 360.339 20.48C360.771 20.976 360.995 21.624 361.011 22.424C361.011 23.144 360.811 23.792 360.411 24.368C360.011 24.944 359.443 25.4 358.707 25.736C357.987 26.056 357.155 26.216 356.211 26.216ZM376.094 18.92C376.094 19.336 376.07 19.776 376.022 20.24H365.51C365.59 21.536 366.03 22.552 366.83 23.288C367.646 24.008 368.63 24.368 369.782 24.368C370.726 24.368 371.51 24.152 372.134 23.72C372.774 23.272 373.222 22.68 373.478 21.944H375.83C375.478 23.208 374.774 24.24 373.718 25.04C372.662 25.824 371.35 26.216 369.782 26.216C368.534 26.216 367.414 25.936 366.422 25.376C365.446 24.816 364.678 24.024 364.118 23C363.558 21.96 363.278 20.76 363.278 19.4C363.278 18.04 363.55 16.848 364.094 15.824C364.638 14.8 365.398 14.016 366.374 13.472C367.366 12.912 368.502 12.632 369.782 12.632C371.03 12.632 372.134 12.904 373.094 13.448C374.054 13.992 374.79 14.744 375.302 15.704C375.83 16.648 376.094 17.72 376.094 18.92ZM373.838 18.464C373.838 17.632 373.654 16.92 373.286 16.328C372.918 15.72 372.414 15.264 371.774 14.96C371.15 14.64 370.454 14.48 369.686 14.48C368.582 14.48 367.638 14.832 366.854 15.536C366.086 16.24 365.646 17.216 365.534 18.464H373.838ZM381.16 14.984C381.544 14.232 382.088 13.648 382.792 13.232C383.512 12.816 384.384 12.608 385.408 12.608V14.864H384.832C382.384 14.864 381.16 16.192 381.16 18.848V26H378.976V12.848H381.16V14.984ZM392.826 23.984L396.906 12.848H399.234L394.074 26H391.53L386.37 12.848H388.722L392.826 23.984ZM413.383 18.92C413.383 19.336 413.359 19.776 413.311 20.24H402.799C402.879 21.536 403.319 22.552 404.119 23.288C404.935 24.008 405.919 24.368 407.071 24.368C408.015 24.368 408.799 24.152 409.423 23.72C410.063 23.272 410.511 22.68 410.767 21.944H413.119C412.767 23.208 412.063 24.24 411.007 25.04C409.951 25.824 408.639 26.216 407.071 26.216C405.823 26.216 404.703 25.936 403.711 25.376C402.735 24.816 401.967 24.024 401.407 23C400.847 21.96 400.567 20.76 400.567 19.4C400.567 18.04 400.839 16.848 401.383 15.824C401.927 14.8 402.687 14.016 403.663 13.472C404.655 12.912 405.791 12.632 407.071 12.632C408.319 12.632 409.423 12.904 410.383 13.448C411.343 13.992 412.079 14.744 412.591 15.704C413.119 16.648 413.383 17.72 413.383 18.92ZM411.127 18.464C411.127 17.632 410.943 16.92 410.575 16.328C410.207 15.72 409.703 15.264 409.063 14.96C408.439 14.64 407.743 14.48 406.975 14.48C405.871 14.48 404.927 14.832 404.143 15.536C403.375 16.24 402.935 17.216 402.823 18.464H411.127ZM415.449 19.376C415.449 18.032 415.721 16.856 416.265 15.848C416.809 14.824 417.553 14.032 418.497 13.472C419.457 12.912 420.529 12.632 421.713 12.632C422.737 12.632 423.689 12.872 424.569 13.352C425.449 13.816 426.121 14.432 426.585 15.2V8.24H428.793V26H426.585V23.528C426.153 24.312 425.513 24.96 424.665 25.472C423.817 25.968 422.825 26.216 421.689 26.216C420.521 26.216 419.457 25.928 418.497 25.352C417.553 24.776 416.809 23.968 416.265 22.928C415.721 21.888 415.449 20.704 415.449 19.376ZM426.585 19.4C426.585 18.408 426.385 17.544 425.985 16.808C425.585 16.072 425.041 15.512 424.353 15.128C423.681 14.728 422.937 14.528 422.121 14.528C421.305 14.528 420.561 14.72 419.889 15.104C419.217 15.488 418.681 16.048 418.281 16.784C417.881 17.52 417.681 18.384 417.681 19.376C417.681 20.384 417.881 21.264 418.281 22.016C418.681 22.752 419.217 23.32 419.889 23.72C420.561 24.104 421.305 24.296 422.121 24.296C422.937 24.296 423.681 24.104 424.353 23.72C425.041 23.32 425.585 22.752 425.985 22.016C426.385 21.264 426.585 20.392 426.585 19.4Z" fill="#040404"/>
<defs>
<clipPath id="clip0_148_92">
<rect width="25.1257" height="29" fill="white" transform="translate(0 3)"/>
</clipPath>
</defs>
</svg>
