<svg width="575" height="324" viewBox="0 0 575 324" fill="none" xmlns="http://www.w3.org/2000/svg">
<path d="M188.639 28.0738L187.426 27.1846C180.984 22.465 172.063 23.1485 166.415 28.7942L155.609 39.5954C151.079 44.1239 150.347 51.2093 153.855 56.5688L154.61 57.7221C158.361 63.4527 158.695 72.0674 156.316 78.4901C154.647 82.9944 150.416 87.17 145.647 87.7421L143.994 87.9404C136.58 88.8298 131 95.1191 131 102.586V115.997C131 123.688 136.55 130.257 144.133 131.541L144.721 131.641C150.65 132.645 156.037 139.723 158.587 145.168C161.378 151.127 160.32 156.161 156.606 161.593L156.314 162.02C152.071 168.225 152.868 176.575 158.208 181.865L168.667 192.227C174.044 197.554 182.423 198.371 188.727 194.183L189.101 193.934C194.735 190.191 201.904 189.705 208.17 192.254C213.3 194.341 217.792 199.101 218.717 204.562L218.901 205.645C220.304 213.934 227.485 220 235.892 220H249.125C256.771 220 263.254 214.378 264.336 206.808L264.383 206.475C265.299 200.068 271.735 194.574 277.619 191.877C283.3 189.273 288.79 190.103 293.814 193.822L294.527 194.35C300.975 199.123 309.948 198.448 315.609 192.763L324.278 184.059C330.026 178.287 330.687 169.178 325.831 162.637L325.257 161.864C321.555 156.878 321.447 150.193 324.039 144.551C324.239 144.115 324.429 143.69 324.609 143.275C326.803 138.227 331.068 133.874 336.468 132.808C342.588 131.601 347 126.233 347 119.995V105.17C347 97.0589 341.207 90.1046 333.229 88.639L332.583 88.5203C326.832 87.4638 321.419 81.0745 318.919 75.7887C316.092 69.8131 317.339 64.6209 321.232 59.2782L321.59 58.7869C326.385 52.2062 325.696 43.1183 319.964 37.3357L311.573 28.8716C305.955 23.2045 297.017 22.5534 290.637 27.3466L289.856 27.9333C284.907 31.6516 276.085 30.5475 270.334 28.2586C264.375 25.8874 261.803 21.4419 261.044 15.0741L260.979 14.5245C260.059 6.80926 253.516 1 245.746 1H233.214C225.552 1 219.025 6.56257 217.809 14.1269L217.631 15.2365C216.628 21.4785 210.497 26.6668 204.826 29.4604C199.337 32.1641 193.575 31.69 188.639 28.0738Z" fill="#F27127" stroke="#F27127"/>
<path d="M374.214 111.703L373.691 110.984C370.909 107.155 365.748 105.931 361.543 108.103L353.491 112.262C350.113 114.006 348.42 117.879 349.432 121.543L349.651 122.335C350.733 126.252 349.367 131.176 346.864 134.377C345.107 136.625 341.957 138.225 339.155 137.687L338.196 137.503C333.851 136.669 329.567 139.212 328.221 143.427L325.788 151.038C324.401 155.379 326.348 160.087 330.396 162.181L330.699 162.338C333.871 163.979 335.638 168.958 336.095 172.5C336.594 176.371 335.088 179.021 332.011 181.422L331.766 181.613C328.248 184.357 327.19 189.221 329.25 193.178L333.281 200.924C335.352 204.903 339.937 206.876 344.25 205.646L344.502 205.574C348.36 204.474 352.501 205.494 355.579 208.067C358.095 210.17 359.769 213.665 359.305 216.911L359.211 217.568C358.506 222.509 361.47 227.237 366.224 228.757L373.664 231.134C377.988 232.516 382.67 230.508 384.648 226.423L384.741 226.23C386.412 222.781 391.032 220.84 394.838 220.378C398.517 219.931 401.471 221.391 403.636 224.401L403.941 224.825C406.717 228.686 411.906 229.923 416.126 227.732L422.592 224.374C426.883 222.146 428.901 217.116 427.341 212.54L427.156 211.997C425.968 208.511 427.113 204.715 429.595 201.994C429.79 201.781 429.976 201.572 430.155 201.367C432.303 198.911 435.495 197.221 438.736 197.593C442.409 198.014 445.867 195.78 446.993 192.258L449.679 183.85C451.143 179.272 449.128 174.302 444.89 172.035L444.557 171.856C441.495 170.218 439.589 165.623 439.132 162.18C438.616 158.293 440.257 155.588 443.419 153.27L443.713 153.055C447.61 150.198 448.862 144.937 446.67 140.63L443.463 134.331C441.318 130.116 436.387 128.135 431.922 129.694L431.378 129.883C427.912 131.093 423.127 128.876 420.292 126.543C417.359 124.13 416.712 121.16 417.433 117.431L417.497 117.095C418.372 112.566 415.723 108.098 411.329 106.694L404.282 104.442C399.95 103.058 395.254 105.024 393.201 109.082L392.894 109.689C391.204 113.03 386.811 114.853 383.108 115.409C379.519 115.947 376.347 114.639 374.214 111.703Z" fill="#F27127" stroke="#F27127"/>
<path d="M29.88 284.872V310H24.84V293.656L18.108 310H14.292L7.524 293.656V310H2.484V284.872H8.208L16.2 303.556L24.192 284.872H29.88ZM33.5669 299.956C33.5669 297.94 33.9629 296.152 34.7549 294.592C35.5709 293.032 36.6629 291.832 38.0309 290.992C39.4229 290.152 40.9709 289.732 42.6749 289.732C44.1629 289.732 45.4589 290.032 46.5629 290.632C47.6909 291.232 48.5909 291.988 49.2629 292.9V290.056H54.3389V310H49.2629V307.084C48.6149 308.02 47.7149 308.8 46.5629 309.424C45.4349 310.024 44.1269 310.324 42.6389 310.324C40.9589 310.324 39.4229 309.892 38.0309 309.028C36.6629 308.164 35.5709 306.952 34.7549 305.392C33.9629 303.808 33.5669 301.996 33.5669 299.956ZM49.2629 300.028C49.2629 298.804 49.0229 297.76 48.5429 296.896C48.0629 296.008 47.4149 295.336 46.5989 294.88C45.7829 294.4 44.9069 294.16 43.9709 294.16C43.0349 294.16 42.1709 294.388 41.3789 294.844C40.5869 295.3 39.9389 295.972 39.4349 296.86C38.9549 297.724 38.7149 298.756 38.7149 299.956C38.7149 301.156 38.9549 302.212 39.4349 303.124C39.9389 304.012 40.5869 304.696 41.3789 305.176C42.1949 305.656 43.0589 305.896 43.9709 305.896C44.9069 305.896 45.7829 305.668 46.5989 305.212C47.4149 304.732 48.0629 304.06 48.5429 303.196C49.0229 302.308 49.2629 301.252 49.2629 300.028ZM57.9653 299.956C57.9653 297.94 58.3613 296.152 59.1533 294.592C59.9693 293.032 61.0613 291.832 62.4293 290.992C63.8213 290.152 65.3693 289.732 67.0733 289.732C68.5613 289.732 69.8573 290.032 70.9613 290.632C72.0893 291.232 72.9893 291.988 73.6613 292.9V290.056H78.7373V310H73.6613V307.084C73.0133 308.02 72.1133 308.8 70.9613 309.424C69.8333 310.024 68.5253 310.324 67.0373 310.324C65.3573 310.324 63.8213 309.892 62.4293 309.028C61.0613 308.164 59.9693 306.952 59.1533 305.392C58.3613 303.808 57.9653 301.996 57.9653 299.956ZM73.6613 300.028C73.6613 298.804 73.4213 297.76 72.9413 296.896C72.4613 296.008 71.8133 295.336 70.9973 294.88C70.1813 294.4 69.3053 294.16 68.3693 294.16C67.4333 294.16 66.5693 294.388 65.7773 294.844C64.9853 295.3 64.3373 295.972 63.8333 296.86C63.3533 297.724 63.1133 298.756 63.1133 299.956C63.1133 301.156 63.3533 302.212 63.8333 303.124C64.3373 304.012 64.9853 304.696 65.7773 305.176C66.5933 305.656 67.4573 305.896 68.3693 305.896C69.3053 305.896 70.1813 305.668 70.9973 305.212C71.8133 304.732 72.4613 304.06 72.9413 303.196C73.4213 302.308 73.6613 301.252 73.6613 300.028ZM92.8038 294.196H89.3118V310H84.1998V294.196H81.9318V290.056H84.1998V289.048C84.1998 286.6 84.8958 284.8 86.2878 283.648C87.6798 282.496 89.7798 281.956 92.5878 282.028V286.276C91.3638 286.252 90.5118 286.456 90.0318 286.888C89.5518 287.32 89.3118 288.1 89.3118 289.228V290.056H92.8038V294.196ZM101.578 304.708L97.3659 314.824H94.1259L96.4659 304.708H101.578ZM134.633 284.872V310H129.593V299.308H118.829V310H113.789V284.872H118.829V295.204H129.593V284.872H134.633ZM138.297 299.956C138.297 297.94 138.693 296.152 139.485 294.592C140.301 293.032 141.393 291.832 142.761 290.992C144.153 290.152 145.701 289.732 147.405 289.732C148.893 289.732 150.189 290.032 151.293 290.632C152.421 291.232 153.321 291.988 153.993 292.9V290.056H159.069V310H153.993V307.084C153.345 308.02 152.445 308.8 151.293 309.424C150.165 310.024 148.857 310.324 147.369 310.324C145.689 310.324 144.153 309.892 142.761 309.028C141.393 308.164 140.301 306.952 139.485 305.392C138.693 303.808 138.297 301.996 138.297 299.956ZM153.993 300.028C153.993 298.804 153.753 297.76 153.273 296.896C152.793 296.008 152.145 295.336 151.329 294.88C150.513 294.4 149.637 294.16 148.701 294.16C147.765 294.16 146.901 294.388 146.109 294.844C145.317 295.3 144.669 295.972 144.165 296.86C143.685 297.724 143.445 298.756 143.445 299.956C143.445 301.156 143.685 302.212 144.165 303.124C144.669 304.012 145.317 304.696 146.109 305.176C146.925 305.656 147.789 305.896 148.701 305.896C149.637 305.896 150.513 305.668 151.329 305.212C152.145 304.732 152.793 304.06 153.273 303.196C153.753 302.308 153.993 301.252 153.993 300.028ZM169.032 283.36V310H163.992V283.36H169.032ZM172.715 299.956C172.715 297.94 173.111 296.152 173.903 294.592C174.719 293.032 175.811 291.832 177.179 290.992C178.571 290.152 180.119 289.732 181.823 289.732C183.311 289.732 184.607 290.032 185.711 290.632C186.839 291.232 187.739 291.988 188.411 292.9V290.056H193.487V310H188.411V307.084C187.763 308.02 186.863 308.8 185.711 309.424C184.583 310.024 183.275 310.324 181.787 310.324C180.107 310.324 178.571 309.892 177.179 309.028C175.811 308.164 174.719 306.952 173.903 305.392C173.111 303.808 172.715 301.996 172.715 299.956ZM188.411 300.028C188.411 298.804 188.171 297.76 187.691 296.896C187.211 296.008 186.563 295.336 185.747 294.88C184.931 294.4 184.055 294.16 183.119 294.16C182.183 294.16 181.319 294.388 180.527 294.844C179.735 295.3 179.087 295.972 178.583 296.86C178.103 297.724 177.863 298.756 177.863 299.956C177.863 301.156 178.103 302.212 178.583 303.124C179.087 304.012 179.735 304.696 180.527 305.176C181.343 305.656 182.207 305.896 183.119 305.896C184.055 305.896 184.931 305.668 185.747 305.212C186.563 304.732 187.211 304.06 187.691 303.196C188.171 302.308 188.411 301.252 188.411 300.028ZM223.178 289.768C225.626 289.768 227.594 290.524 229.082 292.036C230.594 293.524 231.35 295.612 231.35 298.3V310H226.31V298.984C226.31 297.424 225.914 296.236 225.122 295.42C224.33 294.58 223.25 294.16 221.882 294.16C220.514 294.16 219.422 294.58 218.606 295.42C217.814 296.236 217.418 297.424 217.418 298.984V310H212.378V298.984C212.378 297.424 211.982 296.236 211.19 295.42C210.398 294.58 209.318 294.16 207.95 294.16C206.558 294.16 205.454 294.58 204.638 295.42C203.846 296.236 203.45 297.424 203.45 298.984V310H198.41V290.056H203.45V292.468C204.098 291.628 204.926 290.968 205.934 290.488C206.966 290.008 208.094 289.768 209.318 289.768C210.878 289.768 212.27 290.104 213.494 290.776C214.718 291.424 215.666 292.36 216.338 293.584C216.986 292.432 217.922 291.508 219.146 290.812C220.394 290.116 221.738 289.768 223.178 289.768ZM234.836 299.956C234.836 297.94 235.232 296.152 236.024 294.592C236.84 293.032 237.932 291.832 239.3 290.992C240.692 290.152 242.24 289.732 243.944 289.732C245.432 289.732 246.728 290.032 247.832 290.632C248.96 291.232 249.86 291.988 250.532 292.9V290.056H255.608V310H250.532V307.084C249.884 308.02 248.984 308.8 247.832 309.424C246.704 310.024 245.396 310.324 243.908 310.324C242.228 310.324 240.692 309.892 239.3 309.028C237.932 308.164 236.84 306.952 236.024 305.392C235.232 303.808 234.836 301.996 234.836 299.956ZM250.532 300.028C250.532 298.804 250.292 297.76 249.812 296.896C249.332 296.008 248.684 295.336 247.868 294.88C247.052 294.4 246.176 294.16 245.24 294.16C244.304 294.16 243.44 294.388 242.648 294.844C241.856 295.3 241.208 295.972 240.704 296.86C240.224 297.724 239.984 298.756 239.984 299.956C239.984 301.156 240.224 302.212 240.704 303.124C241.208 304.012 241.856 304.696 242.648 305.176C243.464 305.656 244.328 305.896 245.24 305.896C246.176 305.896 247.052 305.668 247.868 305.212C248.684 304.732 249.332 304.06 249.812 303.196C250.292 302.308 250.532 301.252 250.532 300.028ZM271.583 289.768C273.959 289.768 275.879 290.524 277.343 292.036C278.807 293.524 279.539 295.612 279.539 298.3V310H274.499V298.984C274.499 297.4 274.103 296.188 273.311 295.348C272.519 294.484 271.439 294.052 270.071 294.052C268.679 294.052 267.575 294.484 266.759 295.348C265.967 296.188 265.571 297.4 265.571 298.984V310H260.531V290.056H265.571V292.54C266.243 291.676 267.095 291.004 268.127 290.524C269.183 290.02 270.335 289.768 271.583 289.768ZM307.166 297.112C308.582 297.376 309.746 298.084 310.658 299.236C311.57 300.388 312.026 301.708 312.026 303.196C312.026 304.54 311.69 305.728 311.018 306.76C310.37 307.768 309.422 308.56 308.174 309.136C306.926 309.712 305.45 310 303.746 310H292.91V284.872H303.278C304.982 284.872 306.446 285.148 307.67 285.7C308.918 286.252 309.854 287.02 310.478 288.004C311.126 288.988 311.45 290.104 311.45 291.352C311.45 292.816 311.054 294.04 310.262 295.024C309.494 296.008 308.462 296.704 307.166 297.112ZM297.95 295.24H302.558C303.758 295.24 304.682 294.976 305.33 294.448C305.978 293.896 306.302 293.116 306.302 292.108C306.302 291.1 305.978 290.32 305.33 289.768C304.682 289.216 303.758 288.94 302.558 288.94H297.95V295.24ZM303.026 305.896C304.25 305.896 305.198 305.608 305.87 305.032C306.566 304.456 306.914 303.64 306.914 302.584C306.914 301.504 306.554 300.664 305.834 300.064C305.114 299.44 304.142 299.128 302.918 299.128H297.95V305.896H303.026ZM334.583 299.596C334.583 300.316 334.535 300.964 334.439 301.54H319.859C319.979 302.98 320.483 304.108 321.371 304.924C322.259 305.74 323.351 306.148 324.647 306.148C326.519 306.148 327.851 305.344 328.643 303.736H334.079C333.503 305.656 332.399 307.24 330.767 308.488C329.135 309.712 327.131 310.324 324.755 310.324C322.835 310.324 321.107 309.904 319.571 309.064C318.059 308.2 316.871 306.988 316.007 305.428C315.167 303.868 314.747 302.068 314.747 300.028C314.747 297.964 315.167 296.152 316.007 294.592C316.847 293.032 318.023 291.832 319.535 290.992C321.047 290.152 322.787 289.732 324.755 289.732C326.651 289.732 328.343 290.14 329.831 290.956C331.343 291.772 332.507 292.936 333.323 294.448C334.163 295.936 334.583 297.652 334.583 299.596ZM329.363 298.156C329.339 296.86 328.871 295.828 327.959 295.06C327.047 294.268 325.931 293.872 324.611 293.872C323.363 293.872 322.307 294.256 321.443 295.024C320.603 295.768 320.087 296.812 319.895 298.156H329.363ZM343.301 283.36V310H338.261V283.36H343.301ZM367.109 290.056V310H362.033V307.48C361.385 308.344 360.533 309.028 359.477 309.532C358.445 310.012 357.317 310.252 356.093 310.252C354.533 310.252 353.153 309.928 351.953 309.28C350.753 308.608 349.805 307.636 349.109 306.364C348.437 305.068 348.101 303.532 348.101 301.756V290.056H353.141V301.036C353.141 302.62 353.537 303.844 354.329 304.708C355.121 305.548 356.201 305.968 357.569 305.968C358.961 305.968 360.053 305.548 360.845 304.708C361.637 303.844 362.033 302.62 362.033 301.036V290.056H367.109ZM396.85 289.768C399.298 289.768 401.266 290.524 402.754 292.036C404.266 293.524 405.022 295.612 405.022 298.3V310H399.982V298.984C399.982 297.424 399.586 296.236 398.794 295.42C398.002 294.58 396.922 294.16 395.554 294.16C394.186 294.16 393.094 294.58 392.278 295.42C391.486 296.236 391.09 297.424 391.09 298.984V310H386.05V298.984C386.05 297.424 385.654 296.236 384.862 295.42C384.07 294.58 382.99 294.16 381.622 294.16C380.23 294.16 379.126 294.58 378.31 295.42C377.518 296.236 377.122 297.424 377.122 298.984V310H372.082V290.056H377.122V292.468C377.77 291.628 378.598 290.968 379.606 290.488C380.638 290.008 381.766 289.768 382.99 289.768C384.55 289.768 385.942 290.104 387.166 290.776C388.39 291.424 389.338 292.36 390.01 293.584C390.658 292.432 391.594 291.508 392.818 290.812C394.066 290.116 395.41 289.768 396.85 289.768ZM435.482 284.872V288.94H428.786V310H423.746V288.94H417.05V284.872H435.482ZM457.7 299.596C457.7 300.316 457.652 300.964 457.556 301.54H442.976C443.096 302.98 443.6 304.108 444.488 304.924C445.376 305.74 446.468 306.148 447.764 306.148C449.636 306.148 450.968 305.344 451.76 303.736H457.196C456.62 305.656 455.516 307.24 453.884 308.488C452.252 309.712 450.248 310.324 447.872 310.324C445.952 310.324 444.224 309.904 442.688 309.064C441.176 308.2 439.988 306.988 439.124 305.428C438.284 303.868 437.864 302.068 437.864 300.028C437.864 297.964 438.284 296.152 439.124 294.592C439.964 293.032 441.14 291.832 442.652 290.992C444.164 290.152 445.904 289.732 447.872 289.732C449.768 289.732 451.46 290.14 452.948 290.956C454.46 291.772 455.624 292.936 456.44 294.448C457.28 295.936 457.7 297.652 457.7 299.596ZM452.48 298.156C452.456 296.86 451.988 295.828 451.076 295.06C450.164 294.268 449.048 293.872 447.728 293.872C446.48 293.872 445.424 294.256 444.56 295.024C443.72 295.768 443.204 296.812 443.012 298.156H452.48ZM466.419 293.152C467.067 292.096 467.907 291.268 468.939 290.668C469.995 290.068 471.195 289.768 472.539 289.768V295.06H471.207C469.623 295.06 468.423 295.432 467.607 296.176C466.815 296.92 466.419 298.216 466.419 300.064V310H461.379V290.056H466.419V293.152ZM483.565 310.324C481.933 310.324 480.469 310.036 479.173 309.46C477.877 308.86 476.845 308.056 476.077 307.048C475.333 306.04 474.925 304.924 474.853 303.7H479.929C480.025 304.468 480.397 305.104 481.045 305.608C481.717 306.112 482.545 306.364 483.529 306.364C484.489 306.364 485.233 306.172 485.761 305.788C486.313 305.404 486.589 304.912 486.589 304.312C486.589 303.664 486.253 303.184 485.581 302.872C484.933 302.536 483.889 302.176 482.449 301.792C480.961 301.432 479.737 301.06 478.777 300.676C477.841 300.292 477.025 299.704 476.329 298.912C475.657 298.12 475.321 297.052 475.321 295.708C475.321 294.604 475.633 293.596 476.257 292.684C476.905 291.772 477.817 291.052 478.993 290.524C480.193 289.996 481.597 289.732 483.205 289.732C485.581 289.732 487.477 290.332 488.893 291.532C490.309 292.708 491.089 294.304 491.233 296.32H486.409C486.337 295.528 486.001 294.904 485.401 294.448C484.825 293.968 484.045 293.728 483.061 293.728C482.149 293.728 481.441 293.896 480.937 294.232C480.457 294.568 480.217 295.036 480.217 295.636C480.217 296.308 480.553 296.824 481.225 297.184C481.897 297.52 482.941 297.868 484.357 298.228C485.797 298.588 486.985 298.96 487.921 299.344C488.857 299.728 489.661 300.328 490.333 301.144C491.029 301.936 491.389 302.992 491.413 304.312C491.413 305.464 491.089 306.496 490.441 307.408C489.817 308.32 488.905 309.04 487.705 309.568C486.529 310.072 485.149 310.324 483.565 310.324ZM514.09 299.596C514.09 300.316 514.042 300.964 513.946 301.54H499.366C499.486 302.98 499.99 304.108 500.878 304.924C501.766 305.74 502.858 306.148 504.154 306.148C506.026 306.148 507.358 305.344 508.15 303.736H513.586C513.01 305.656 511.906 307.24 510.274 308.488C508.642 309.712 506.638 310.324 504.262 310.324C502.342 310.324 500.614 309.904 499.078 309.064C497.566 308.2 496.378 306.988 495.514 305.428C494.674 303.868 494.254 302.068 494.254 300.028C494.254 297.964 494.674 296.152 495.514 294.592C496.354 293.032 497.53 291.832 499.042 290.992C500.554 290.152 502.294 289.732 504.262 289.732C506.158 289.732 507.85 290.14 509.338 290.956C510.85 291.772 512.014 292.936 512.83 294.448C513.67 295.936 514.09 297.652 514.09 299.596ZM508.87 298.156C508.846 296.86 508.378 295.828 507.466 295.06C506.554 294.268 505.438 293.872 504.118 293.872C502.87 293.872 501.814 294.256 500.95 295.024C500.11 295.768 499.594 296.812 499.402 298.156H508.87ZM516.473 299.956C516.473 297.94 516.869 296.152 517.661 294.592C518.477 293.032 519.581 291.832 520.973 290.992C522.365 290.152 523.913 289.732 525.617 289.732C526.913 289.732 528.149 290.02 529.325 290.596C530.501 291.148 531.437 291.892 532.133 292.828V283.36H537.245V310H532.133V307.048C531.509 308.032 530.633 308.824 529.505 309.424C528.377 310.024 527.069 310.324 525.581 310.324C523.901 310.324 522.365 309.892 520.973 309.028C519.581 308.164 518.477 306.952 517.661 305.392C516.869 303.808 516.473 301.996 516.473 299.956ZM532.169 300.028C532.169 298.804 531.929 297.76 531.449 296.896C530.969 296.008 530.321 295.336 529.505 294.88C528.689 294.4 527.813 294.16 526.877 294.16C525.941 294.16 525.077 294.388 524.285 294.844C523.493 295.3 522.845 295.972 522.341 296.86C521.861 297.724 521.621 298.756 521.621 299.956C521.621 301.156 521.861 302.212 522.341 303.124C522.845 304.012 523.493 304.696 524.285 305.176C525.101 305.656 525.965 305.896 526.877 305.896C527.813 305.896 528.689 305.668 529.505 305.212C530.321 304.732 530.969 304.06 531.449 303.196C531.929 302.308 532.169 301.252 532.169 300.028ZM544.724 287.68C543.836 287.68 543.092 287.404 542.492 286.852C541.916 286.276 541.628 285.568 541.628 284.728C541.628 283.888 541.916 283.192 542.492 282.64C543.092 282.064 543.836 281.776 544.724 281.776C545.612 281.776 546.344 282.064 546.92 282.64C547.52 283.192 547.82 283.888 547.82 284.728C547.82 285.568 547.52 286.276 546.92 286.852C546.344 287.404 545.612 287.68 544.724 287.68ZM547.208 290.056V310H542.168V290.056H547.208ZM550.891 299.956C550.891 297.94 551.287 296.152 552.079 294.592C552.895 293.032 553.987 291.832 555.355 290.992C556.747 290.152 558.295 289.732 559.999 289.732C561.487 289.732 562.783 290.032 563.887 290.632C565.015 291.232 565.915 291.988 566.587 292.9V290.056H571.663V310H566.587V307.084C565.939 308.02 565.039 308.8 563.887 309.424C562.759 310.024 561.451 310.324 559.963 310.324C558.283 310.324 556.747 309.892 555.355 309.028C553.987 308.164 552.895 306.952 552.079 305.392C551.287 303.808 550.891 301.996 550.891 299.956ZM566.587 300.028C566.587 298.804 566.347 297.76 565.867 296.896C565.387 296.008 564.739 295.336 563.923 294.88C563.107 294.4 562.231 294.16 561.295 294.16C560.359 294.16 559.495 294.388 558.703 294.844C557.911 295.3 557.263 295.972 556.759 296.86C556.279 297.724 556.039 298.756 556.039 299.956C556.039 301.156 556.279 302.212 556.759 303.124C557.263 304.012 557.911 304.696 558.703 305.176C559.519 305.656 560.383 305.896 561.295 305.896C562.231 305.896 563.107 305.668 563.923 305.212C564.739 304.732 565.387 304.06 565.867 303.196C566.347 302.308 566.587 301.252 566.587 300.028Z" fill="black"/>
</svg>
