<svg width="166" height="108" viewBox="0 0 166 108" fill="none" xmlns="http://www.w3.org/2000/svg">
<path d="M43.632 28.024V40.696H30.096V79H14.112V40.696H0.72V28.024H43.632ZM63.9512 28.024V79H47.9672V28.024H63.9512ZM112.858 45.52C112.858 48.736 112.114 51.664 110.626 54.304C109.138 56.896 106.93 58.96 104.002 60.496C101.122 62.032 97.6183 62.8 93.4903 62.8H87.1543V79H71.1703V28.024H93.4903C99.7303 28.024 104.506 29.608 107.818 32.776C111.178 35.944 112.858 40.192 112.858 45.52ZM91.6903 50.2C95.0023 50.2 96.6583 48.64 96.6583 45.52C96.6583 42.4 95.0023 40.84 91.6903 40.84H87.1543V50.2H91.6903ZM137.872 79.504C131.776 79.504 126.736 78.088 122.752 75.256C118.816 72.376 116.68 68.176 116.344 62.656H133.336C133.576 65.584 134.872 67.048 137.224 67.048C138.088 67.048 138.808 66.856 139.384 66.472C140.008 66.04 140.32 65.392 140.32 64.528C140.32 63.328 139.672 62.368 138.376 61.648C137.08 60.88 135.064 60.016 132.328 59.056C129.064 57.904 126.352 56.776 124.192 55.672C122.08 54.568 120.256 52.96 118.72 50.848C117.184 48.736 116.44 46.024 116.488 42.712C116.488 39.4 117.328 36.592 119.008 34.288C120.736 31.936 123.064 30.16 125.992 28.96C128.968 27.76 132.304 27.16 136 27.16C142.24 27.16 147.184 28.6 150.832 31.48C154.528 34.36 156.472 38.416 156.664 43.648H139.456C139.408 42.208 139.048 41.176 138.376 40.552C137.704 39.928 136.888 39.616 135.928 39.616C135.256 39.616 134.704 39.856 134.272 40.336C133.84 40.768 133.624 41.392 133.624 42.208C133.624 43.36 134.248 44.32 135.496 45.088C136.792 45.808 138.832 46.696 141.616 47.752C144.832 48.952 147.472 50.104 149.536 51.208C151.648 52.312 153.472 53.848 155.008 55.816C156.544 57.784 157.312 60.256 157.312 63.232C157.312 66.352 156.544 69.16 155.008 71.656C153.472 74.104 151.24 76.024 148.312 77.416C145.384 78.808 141.904 79.504 137.872 79.504Z" fill="#040404"/>
<line x1="80" y1="90.5" x2="166" y2="90.5" stroke="#F27127" stroke-width="5"/>
</svg>
