<svg width="290" height="108" viewBox="0 0 290 108" fill="none" xmlns="http://www.w3.org/2000/svg">
<path d="M54.936 28.024L37.8 79H17.136L0 28.024H16.992L27.504 63.088L37.944 28.024H54.936ZM91.2021 71.296H74.2101L71.6901 79H54.9141L73.5621 28.024H91.9941L110.57 79H93.7221L91.2021 71.296ZM87.3141 59.272L82.7061 45.088L78.0981 59.272H87.3141ZM145.018 79L130.186 56.896V79H114.202V28.024H130.186V49.48L144.802 28.024H162.874L145.306 52.432L164.026 79H145.018ZM188.497 79.504C182.401 79.504 177.361 78.088 173.377 75.256C169.441 72.376 167.305 68.176 166.969 62.656H183.961C184.201 65.584 185.497 67.048 187.849 67.048C188.713 67.048 189.433 66.856 190.009 66.472C190.633 66.04 190.945 65.392 190.945 64.528C190.945 63.328 190.297 62.368 189.001 61.648C187.705 60.88 185.689 60.016 182.953 59.056C179.689 57.904 176.977 56.776 174.817 55.672C172.705 54.568 170.881 52.96 169.345 50.848C167.809 48.736 167.065 46.024 167.113 42.712C167.113 39.4 167.953 36.592 169.633 34.288C171.361 31.936 173.689 30.16 176.617 28.96C179.593 27.76 182.929 27.16 186.625 27.16C192.865 27.16 197.809 28.6 201.457 31.48C205.153 34.36 207.097 38.416 207.289 43.648H190.081C190.033 42.208 189.673 41.176 189.001 40.552C188.329 39.928 187.513 39.616 186.553 39.616C185.881 39.616 185.329 39.856 184.897 40.336C184.465 40.768 184.249 41.392 184.249 42.208C184.249 43.36 184.873 44.32 186.121 45.088C187.417 45.808 189.457 46.696 192.241 47.752C195.457 48.952 198.097 50.104 200.161 51.208C202.273 52.312 204.097 53.848 205.633 55.816C207.169 57.784 207.937 60.256 207.937 63.232C207.937 66.352 207.169 69.16 205.633 71.656C204.097 74.104 201.865 76.024 198.937 77.416C196.009 78.808 192.529 79.504 188.497 79.504ZM229.537 28.024V79H213.553V28.024H229.537ZM285.644 79H269.66L252.74 53.368V79H236.756V28.024H252.74L269.66 54.088V28.024H285.644V79Z" fill="#040404"/>
<line x1="8" y1="91.5" x2="141" y2="91.5" stroke="#F27127" stroke-width="5"/>
</svg>
